<?xml version="1.0" encoding="utf-8"?>
<!-- Generator: Adobe Illustrator 16.0.0, SVG Export Plug-In . SVG Version: 6.00 Build 0)  -->
<!DOCTYPE svg PUBLIC "-//W3C//DTD SVG 1.1//EN" "http://www.w3.org/Graphics/SVG/1.1/DTD/svg11.dtd">
<svg version="1.1" id="Calque_1" xmlns="http://www.w3.org/2000/svg" xmlns:xlink="http://www.w3.org/1999/xlink" x="0px" y="0px"
	 width="700px" height="220px" viewBox="0 0 700 220" enable-background="new 0 0 700 220" xml:space="preserve">
<text transform="matrix(1 0 0 1 294.7065 167.6387)" font-family="'MyriadPro-Regular'" font-size="10.0426">2dbceb</text>
<path fill="#FFFFFF" stroke="#2DBCEB" stroke-width="6" stroke-miterlimit="10" d="M675.479,174.322H23.968
	c-9.115,0-16.572-7.455-16.572-16.572V62.118c0-9.114,7.458-16.572,16.572-16.572h651.512c9.113,0,16.572,7.458,16.572,16.572
	v95.632C692.052,166.867,684.593,174.322,675.479,174.322z"/>
<path fill="#FFFFFF" stroke="#92C364" stroke-width="6" stroke-miterlimit="10" d="M692.052,157.75
	c0,9.117-7.459,16.572-16.572,16.572H23.968c-9.115,0-16.572-7.455-16.572-16.572V62.118"/>
<g>
	<path fill="#313133" d="M98.587,96.947c0.027,0.46-0.106,1.116-0.403,1.968c-0.295,0.852-0.734,1.693-1.313,2.523
		c-0.581,0.83-1.293,1.564-2.142,2.205c-0.847,0.642-1.809,0.993-2.883,1.057c-0.256,0.015-0.577,0.015-0.962-0.002
		c-0.387-0.015-0.77-0.088-1.149-0.22c-0.38-0.131-0.707-0.328-0.979-0.597c-0.272-0.265-0.422-0.629-0.449-1.089
		c-0.014-0.23,0.082-0.564,0.288-0.999c0.205-0.436,0.427-0.905,0.667-1.407c0.24-0.501,0.46-0.989,0.664-1.465
		c0.203-0.473,0.295-0.864,0.277-1.172c-0.051-0.868-0.703-1.465-1.954-1.79c-1.251-0.323-3.323-0.399-6.213-0.229
		c-2.884,0.274-5.483,0.602-7.796,0.982c-2.313,0.381-4.444,0.815-6.392,1.303c-1.948,0.487-3.764,1.025-5.449,1.611
		c-1.685,0.588-3.343,1.205-4.973,1.854c-1.63,0.648-3.277,1.337-4.94,2.064c-1.665,0.728-3.436,1.468-5.317,2.22
		c-0.176,0.063-0.347,0.123-0.509,0.185c-0.164,0.062-0.309,0.096-0.437,0.103c-0.409,0.024-0.786-0.043-1.129-0.201
		c-0.343-0.159-0.645-0.388-0.906-0.679c-0.261-0.293-0.474-0.627-0.637-1.003c-0.163-0.375-0.257-0.767-0.281-1.176
		c-0.04-0.666,0.453-1.445,1.478-2.34c1.025-0.896,2.446-1.82,4.264-2.775c1.817-0.954,3.969-1.909,6.454-2.866
		c2.484-0.955,5.172-1.832,8.065-2.634c2.891-0.8,5.918-1.479,9.081-2.039c3.164-0.559,6.331-0.934,9.502-1.121
		c2.737-0.162,5.116-0.084,7.138,0.233c2.021,0.315,3.706,0.819,5.057,1.509c1.35,0.69,2.375,1.549,3.078,2.571
		C98.086,94.557,98.488,95.694,98.587,96.947z M56.391,144.494c-0.338,0.791-0.758,1.496-1.261,2.117
		c-0.502,0.619-1.049,1.139-1.64,1.559s-1.201,0.746-1.829,0.977c-0.629,0.229-1.225,0.361-1.787,0.395
		c-0.819,0.047-1.521-0.123-2.109-0.512c-0.588-0.389-0.906-0.992-0.955-1.811c-0.017-0.281-0.003-0.598,0.04-0.945
		c0.043-0.35,0.155-0.734,0.336-1.156c1.706-4.131,3.415-8.109,5.127-11.932c1.711-3.822,3.374-7.4,4.987-10.73
		c1.612-3.33,3.146-6.367,4.601-9.109c1.455-2.743,2.785-5.093,3.991-7.051c1.206-1.958,2.246-3.477,3.119-4.556
		c0.872-1.077,1.526-1.63,1.961-1.655c0.895-0.054,1.575,0.163,2.04,0.649c0.466,0.485,0.719,1.073,0.76,1.764
		c0.033,0.563-0.074,1.134-0.322,1.714c-0.563,1.343-1.198,2.861-1.905,4.56c-0.708,1.698-1.455,3.501-2.241,5.41
		c-0.786,1.906-1.606,3.881-2.46,5.92c-0.854,2.041-1.697,4.066-2.527,6.08c-0.832,2.012-1.647,3.961-2.446,5.844
		c-0.8,1.883-1.544,3.627-2.231,5.234c-0.688,1.605-1.309,3.035-1.864,4.287C57.221,142.797,56.759,143.781,56.391,144.494z"/>
	<path fill="#313133" d="M94.749,116.002c2.123-0.125,3.739,0.293,4.849,1.254c1.109,0.961,1.718,2.35,1.825,4.166
		c0.064,1.074-0.152,2.217-0.645,3.426c-0.493,1.211-1.394,2.463-2.703,3.76c-1.31,1.299-3.084,2.648-5.324,4.051
		c-2.24,1.402-5.063,2.848-8.464,4.332c0.171,0.734,0.602,1.293,1.293,1.676c0.689,0.383,1.584,0.541,2.685,0.477
		c1.176-0.07,2.426-0.318,3.749-0.74c1.322-0.426,2.625-0.945,3.912-1.563c1.285-0.613,2.537-1.271,3.753-1.973
		c1.216-0.703,2.313-1.363,3.29-1.986c0.977-0.621,1.792-1.158,2.446-1.607s1.093-0.732,1.317-0.848
		c0.221-0.168,0.426-0.27,0.617-0.307c0.19-0.037,0.361-0.061,0.515-0.07c0.307-0.018,0.566,0.039,0.78,0.166
		c0.213,0.129,0.395,0.285,0.547,0.467c0.151,0.186,0.26,0.385,0.324,0.598c0.064,0.217,0.101,0.398,0.11,0.553
		c0.014,0.23,0.004,0.508-0.028,0.83c-0.033,0.322-0.204,0.699-0.511,1.127c-0.12,0.135-0.528,0.508-1.224,1.111
		c-0.695,0.607-1.597,1.326-2.702,2.164c-1.105,0.834-2.394,1.727-3.865,2.672c-1.472,0.947-3.036,1.83-4.695,2.646
		c-1.659,0.818-3.395,1.518-5.208,2.1c-1.814,0.582-3.616,0.928-5.406,1.033c-1.535,0.092-2.915-0.123-4.139-0.643
		c-1.224-0.516-2.282-1.25-3.172-2.197c-0.891-0.949-1.592-2.063-2.104-3.342c-0.513-1.277-0.811-2.635-0.896-4.066
		c-0.064-1.1,0.081-2.32,0.438-3.664c0.356-1.344,0.905-2.705,1.645-4.084c0.74-1.377,1.667-2.736,2.782-4.072
		c1.114-1.336,2.384-2.533,3.811-3.594c1.425-1.061,3.01-1.938,4.754-2.631C90.846,116.529,92.728,116.123,94.749,116.002z
		 M93.681,121.379c-0.129-0.018-0.246-0.023-0.348-0.018c-0.103,0.006-0.218,0.014-0.346,0.02c-0.972,0.059-1.869,0.305-2.69,0.738
		c-0.822,0.432-1.565,0.984-2.231,1.652c-0.667,0.668-1.251,1.416-1.754,2.24c-0.503,0.826-0.95,1.643-1.338,2.447
		c-0.388,0.807-0.709,1.576-0.96,2.311c-0.252,0.732-0.44,1.348-0.564,1.842c0.868-0.514,1.764-1.092,2.688-1.736
		c0.925-0.646,1.792-1.262,2.605-1.85c0.812-0.588,1.518-1.115,2.12-1.588c0.601-0.473,1.024-0.793,1.271-0.961
		c1.108-0.785,1.862-1.504,2.26-2.156c0.397-0.652,0.583-1.209,0.556-1.67c-0.023-0.383-0.163-0.682-0.418-0.898
		C94.274,121.537,93.991,121.412,93.681,121.379z"/>
	<path fill="#313133" d="M115.92,121.102c1.609,0.727,3.058,1.576,4.349,2.555c1.29,0.977,2.397,2.02,3.324,3.133
		c0.925,1.113,1.648,2.258,2.167,3.434s0.812,2.338,0.88,3.49c0.086,1.457-0.252,2.795-1.014,4.006
		c-0.763,1.215-1.792,2.264-3.087,3.148c-1.295,0.885-2.793,1.59-4.495,2.115c-1.702,0.523-3.435,0.838-5.2,0.943
		c-1.33,0.078-2.631,0.006-3.902-0.213c-1.271-0.221-2.442-0.605-3.515-1.16c-1.072-0.551-2.008-1.285-2.806-2.201
		c-0.798-0.914-1.391-2.027-1.777-3.34c-0.063-0.201-0.099-0.367-0.106-0.494c-0.041-0.691,0.167-1.299,0.623-1.828
		c0.457-0.527,0.979-0.809,1.567-0.844c0.281-0.016,0.598,0.018,0.949,0.098c0.351,0.084,0.627,0.297,0.827,0.645
		c0.369,0.594,0.869,1.117,1.498,1.566c0.63,0.451,1.326,0.826,2.089,1.129c0.762,0.301,1.564,0.523,2.407,0.664
		c0.842,0.143,1.66,0.191,2.453,0.145c0.819-0.047,1.601-0.172,2.347-0.369c0.745-0.197,1.396-0.482,1.952-0.848
		c0.556-0.365,0.985-0.814,1.288-1.348c0.302-0.531,0.43-1.166,0.387-1.908c-0.077-1.305-0.442-2.49-1.096-3.555
		c-0.654-1.064-1.475-2.037-2.464-2.916c-0.99-0.877-2.102-1.684-3.339-2.42c-1.237-0.736-2.466-1.438-3.687-2.111
		c-0.132-0.07-0.337-0.281-0.615-0.637c-0.277-0.355-0.427-0.727-0.45-1.109c-0.018-0.307,0.044-0.555,0.187-0.744
		c0.377-0.561,0.818-1.139,1.322-1.732c0.504-0.594,1.049-1.146,1.635-1.658c0.586-0.508,1.229-0.932,1.928-1.27
		c0.698-0.334,1.432-0.525,2.199-0.572c0.563-0.033,1.092,0.012,1.587,0.139c0.495,0.125,0.916,0.297,1.263,0.521
		c0.346,0.225,0.625,0.477,0.834,0.76c0.209,0.281,0.322,0.551,0.336,0.807c0.021,0.359-0.048,0.711-0.207,1.053
		s-0.377,0.676-0.653,1c-0.276,0.324-0.59,0.65-0.943,0.98C116.608,120.482,116.262,120.801,115.92,121.102z"/>
	<path fill="#313133" d="M139.803,119.957c-0.838,1.898-1.627,3.748-2.367,5.551c-0.741,1.801-1.438,3.467-2.092,4.992
		c-0.271,0.635-0.53,1.361-0.776,2.186c-0.247,0.822-0.352,1.541-0.315,2.154c0.021,0.359,0.121,0.637,0.3,0.83
		c0.178,0.195,0.459,0.281,0.843,0.258c0.538-0.031,1.206-0.23,2.005-0.6c0.799-0.367,1.657-0.844,2.573-1.422
		c0.915-0.58,1.877-1.242,2.886-1.982c1.009-0.738,1.996-1.504,2.964-2.293c0.966-0.787,1.89-1.574,2.768-2.357
		c0.877-0.785,1.656-1.504,2.336-2.16c0.393-0.305,0.768-0.469,1.126-0.49c0.434-0.027,0.804,0.145,1.108,0.512
		c0.305,0.367,0.474,0.844,0.509,1.432c0.035,0.59-0.07,1.199-0.315,1.83c-0.245,0.629-0.721,1.262-1.428,1.895
		c-1.574,1.607-3.17,3.139-4.791,4.596c-1.621,1.457-3.238,2.752-4.852,3.887c-1.615,1.135-3.222,2.059-4.823,2.77
		c-1.602,0.711-3.168,1.113-4.703,1.203c-1.023,0.061-1.889-0.023-2.595-0.252c-0.706-0.227-1.284-0.564-1.734-1.012
		c-0.45-0.449-0.784-0.982-1-1.598c-0.216-0.615-0.345-1.283-0.387-1.998c-0.076-1.281,0.063-2.623,0.416-4.029
		c0.353-1.408,0.765-2.678,1.238-3.811c0.673-1.629,1.341-3.248,2.003-4.854c0.662-1.605,1.309-3.145,1.939-4.619l-1.649,0.098
		c-1.433,0.084-2.431-0.088-2.995-0.516c-0.564-0.43-0.863-0.938-0.899-1.525c-0.015-0.256,0.049-0.574,0.193-0.955
		s0.367-0.742,0.668-1.08s0.674-0.637,1.122-0.893c0.447-0.258,0.963-0.404,1.553-0.439l4.144-0.246l7.145-16.556
		c0.454-1.002,1.045-1.736,1.776-2.203c0.729-0.468,1.503-0.725,2.322-0.773c0.767-0.045,1.483,0.118,2.146,0.49
		s1.024,1.03,1.081,1.977c0.028,0.485-0.052,0.985-0.239,1.495c-0.188,0.513-0.442,1.111-0.759,1.798
		c-0.205,0.448-0.457,0.983-0.753,1.604c-0.297,0.621-0.611,1.281-0.941,1.979c-0.332,0.7-0.673,1.434-1.025,2.198
		c-0.353,0.767-0.701,1.505-1.043,2.219c-0.773,1.688-1.592,3.469-2.457,5.344l12.509-0.742c0.613-0.035,1.178-0.037,1.693-0.004
		c0.516,0.035,0.965,0.135,1.347,0.305c0.382,0.17,0.685,0.416,0.91,0.736c0.224,0.32,0.353,0.764,0.386,1.326
		c0.017,0.281-0.011,0.564-0.083,0.85c-0.073,0.289-0.224,0.555-0.454,0.799s-0.551,0.455-0.963,0.635
		c-0.413,0.178-0.951,0.313-1.613,0.404L139.803,119.957z"/>
	<path fill="#313133" d="M190.043,113.979c0.683-0.604,1.265-1.07,1.747-1.393c0.481-0.324,0.897-0.566,1.247-0.729
		c0.35-0.162,0.671-0.264,0.964-0.309c0.292-0.041,0.592-0.072,0.899-0.09c0.537-0.033,0.933,0.143,1.187,0.525
		c0.254,0.383,0.393,0.793,0.419,1.227c0.021,0.359-0.023,0.693-0.133,1.008l-7.534,18.428c1.174-0.992,2.534-1.977,4.08-2.955
		c1.546-0.977,3.034-1.861,4.464-2.65c1.429-0.791,2.661-1.436,3.697-1.932c1.035-0.5,1.631-0.754,1.784-0.762
		c0.639-0.039,1.217,0.172,1.731,0.629s0.794,1.057,0.838,1.799c0.04,0.664-0.167,1.383-0.623,2.154
		c-0.455,0.771-1.289,1.539-2.501,2.305c-1.732,1.104-3.241,2.045-4.53,2.828s-2.428,1.486-3.418,2.109s-1.868,1.188-2.633,1.697
		c-0.767,0.506-1.486,1.023-2.161,1.551c-0.674,0.527-1.335,1.086-1.979,1.678c-0.646,0.588-1.343,1.279-2.092,2.068
		c-0.498,1.568-0.992,3.074-1.484,4.516c-0.492,1.439-0.944,2.713-1.353,3.814c-0.41,1.102-0.748,1.994-1.016,2.68
		c-0.267,0.682-0.413,1.051-0.436,1.104c-1.817,4.42-3.967,6.703-6.447,6.852c-1.024,0.059-1.875-0.23-2.555-0.871
		c-0.68-0.641-1.053-1.535-1.122-2.688c-0.063-1.074,0.008-2.15,0.214-3.227c0.205-1.078,0.609-2.277,1.211-3.596
		c0.602-1.318,1.413-2.799,2.433-4.438c1.019-1.639,2.31-3.57,3.873-5.793l6.754-15.994c-3.567,4.781-6.84,8.465-9.819,11.055
		s-5.824,3.965-8.534,4.127c-0.87,0.051-1.624-0.105-2.261-0.465c-0.638-0.359-0.983-1.002-1.038-1.922
		c-0.076-1.277,0.145-2.742,0.663-4.391c0.307-0.891,0.618-1.711,0.933-2.461c0.314-0.75,0.642-1.5,0.983-2.254
		c0.34-0.75,0.696-1.561,1.069-2.432c0.372-0.867,0.775-1.848,1.212-2.939c0.437-1.09,0.913-2.352,1.432-3.781
		c0.518-1.43,1.092-3.1,1.724-5.012c0.452-1.027,1.075-1.791,1.867-2.285c0.792-0.496,1.572-0.768,2.339-0.813
		c0.793-0.047,1.475,0.1,2.048,0.438c0.571,0.338,0.876,0.814,0.912,1.428c0.019,0.307-0.018,0.578-0.106,0.814l-6.156,15.035
		c-0.314,0.764-0.459,1.363-0.433,1.797c0.022,0.385,0.187,0.566,0.494,0.547c0.281-0.016,0.63-0.176,1.049-0.484
		c0.419-0.307,0.809-0.65,1.171-1.031L190.043,113.979z"/>
	<path fill="#313133" d="M217.728,108.758c0.971-0.058,2.021,0.009,3.149,0.199c1.128,0.189,2.183,0.563,3.167,1.122
		c0.981,0.558,1.816,1.323,2.504,2.295c0.687,0.975,1.074,2.203,1.162,3.688c0.045,0.766-0.005,1.648-0.152,2.645
		c-0.146,0.998-0.393,2.045-0.738,3.145c0.273,0.291,0.581,0.492,0.921,0.6c0.34,0.109,0.702,0.15,1.086,0.129
		c0.537-0.033,1.123-0.221,1.757-0.566c0.634-0.346,1.282-0.781,1.944-1.309c0.662-0.527,1.32-1.119,1.974-1.773
		c0.654-0.654,1.271-1.309,1.848-1.957c0.577-0.65,1.1-1.266,1.566-1.846c0.466-0.578,0.854-1.07,1.164-1.475
		c0.168-0.188,0.381-0.291,0.636-0.307c0.358-0.021,0.689,0.145,0.992,0.5c0.303,0.354,0.475,0.863,0.514,1.529
		c0.04,0.664-0.113,1.443-0.459,2.336c-0.345,0.895-1.026,1.846-2.044,2.857c-0.575,0.701-1.234,1.51-1.975,2.426
		c-0.742,0.918-1.537,1.785-2.387,2.605s-1.745,1.527-2.685,2.123c-0.94,0.594-1.896,0.92-2.869,0.979
		c-0.666,0.039-1.317-0.025-1.955-0.193c-0.64-0.166-1.292-0.461-1.959-0.885c-0.836,1.488-1.808,2.854-2.914,4.102
		c-1.108,1.246-2.359,2.334-3.753,3.264c-1.396,0.93-2.917,1.682-4.565,2.252c-1.647,0.574-3.417,0.916-5.31,1.027
		c-0.716,0.043-1.556-0.049-2.519-0.275c-0.964-0.225-1.893-0.639-2.789-1.24c-0.896-0.6-1.669-1.408-2.319-2.422
		c-0.651-1.014-1.021-2.275-1.11-3.785c-0.061-1.023,0.033-2.262,0.281-3.713c0.247-1.451,0.666-2.959,1.253-4.521
		c0.587-1.563,1.355-3.123,2.303-4.682c0.947-1.557,2.102-2.973,3.464-4.246c1.362-1.275,2.942-2.33,4.741-3.168
		C213.451,109.378,215.476,108.891,217.728,108.758z M216.131,115.631c-1.203,0.07-2.341,0.439-3.419,1.105
		c-1.077,0.668-2.015,1.52-2.813,2.555c-0.8,1.037-1.417,2.188-1.855,3.461c-0.438,1.27-0.619,2.557-0.542,3.861
		c0.029,0.488,0.099,1.016,0.209,1.586c0.111,0.572,0.303,1.1,0.575,1.584c0.272,0.484,0.649,0.881,1.129,1.184
		c0.48,0.307,1.104,0.436,1.872,0.391c1.176-0.07,2.303-0.449,3.378-1.145c1.075-0.691,2.018-1.568,2.828-2.631
		c0.81-1.061,1.433-2.246,1.869-3.557c0.436-1.311,0.615-2.617,0.538-3.922c-0.03-0.51-0.094-1.039-0.19-1.586
		c-0.097-0.545-0.28-1.041-0.55-1.488c-0.27-0.445-0.645-0.803-1.122-1.068C217.56,115.693,216.924,115.582,216.131,115.631z"/>
	<path fill="#313133" d="M275.546,124.125c-1.05,1.348-2.287,2.67-3.711,3.973c-1.425,1.307-2.902,2.477-4.432,3.518
		c-1.53,1.041-3.046,1.895-4.546,2.561s-2.864,1.037-4.092,1.109s-2.246-0.215-3.054-0.859c-0.808-0.646-1.262-1.799-1.36-3.463
		c-0.069-1.176,0.053-2.557,0.371-4.141c-0.606,1.037-1.377,2.096-2.314,3.178c-0.938,1.084-2.021,2.084-3.25,3.004
		c-1.229,0.918-2.621,1.688-4.175,2.307c-1.555,0.619-3.267,0.982-5.134,1.094c-0.843,0.051-1.661,0.008-2.453-0.123
		c-0.791-0.135-1.493-0.4-2.106-0.801c-0.614-0.4-1.122-0.955-1.523-1.662c-0.402-0.709-0.634-1.611-0.7-2.711
		c-0.001-0.025,0.026-0.418,0.084-1.18c0.058-0.76,0.313-1.971,0.767-3.625c0.454-1.658,1.18-3.813,2.179-6.465
		c0.998-2.65,2.436-5.881,4.316-9.688c0.48-1.004,1.058-1.738,1.737-2.202s1.427-0.72,2.246-0.77
		c0.358-0.021,0.732,0.002,1.121,0.07c0.389,0.066,0.755,0.187,1.099,0.357c0.344,0.173,0.626,0.399,0.849,0.683
		c0.222,0.282,0.345,0.613,0.367,0.998c0.015,0.256-0.009,0.501-0.072,0.735c-0.103,0.443-0.344,1.029-0.724,1.755
		c-0.381,0.73-0.826,1.564-1.334,2.506c-0.509,0.941-1.046,1.955-1.61,3.043c-0.565,1.086-1.083,2.205-1.553,3.363
		c-0.471,1.156-0.863,2.328-1.178,3.516c-0.314,1.188-0.465,2.332-0.451,3.434c0.027,0.461,0.18,0.875,0.459,1.244
		c0.278,0.369,0.711,0.535,1.3,0.5c1.663-0.098,3.221-0.652,4.677-1.662c1.454-1.01,2.78-2.236,3.979-3.682
		c1.198-1.445,2.269-2.982,3.211-4.619c0.943-1.635,1.721-3.125,2.335-4.469c0.434-0.898,0.807-1.857,1.119-2.879
		c0.312-1.018,0.66-1.963,1.045-2.833c0.384-0.869,0.841-1.601,1.371-2.197c0.529-0.597,1.216-0.921,2.061-0.97
		c0.92-0.055,1.667,0.196,2.239,0.752c0.572,0.557,0.882,1.245,0.931,2.063c0.027,0.461-0.108,1.105-0.405,1.931
		c-0.297,0.826-0.679,1.773-1.141,2.839c-0.463,1.068-0.967,2.207-1.511,3.42s-1.043,2.443-1.496,3.689s-0.817,2.461-1.093,3.646
		c-0.276,1.184-0.385,2.273-0.326,3.273c0.055,0.92,0.645,1.348,1.77,1.279c0.792-0.047,1.764-0.336,2.914-0.865
		s2.345-1.25,3.588-2.156c1.242-0.908,2.476-1.963,3.702-3.166c1.224-1.199,2.297-2.484,3.218-3.85L275.546,124.125z"/>
	<path fill="#313133" d="M282.899,110.445c0.962-0.674,1.958-1.297,2.989-1.872c1.031-0.574,2.035-1.076,3.011-1.506
		s1.911-0.781,2.806-1.053c0.895-0.271,1.701-0.428,2.417-0.47c1.151-0.069,2.056,0.154,2.715,0.668
		c0.66,0.512,1.028,1.421,1.105,2.726c0.017,0.282,0.021,0.583,0.015,0.903c-0.006,0.321-0.037,0.664-0.092,1.026
		c-0.089,0.673-0.427,1.476-1.013,2.41c-0.587,0.932-1.28,1.91-2.079,2.934c-0.8,1.023-1.663,2.055-2.589,3.098
		c-0.927,1.043-1.782,2.006-2.563,2.887c-0.783,0.879-1.431,1.643-1.943,2.289c-0.514,0.646-0.764,1.086-0.75,1.314
		c0.012,0.207,0.033,0.346,0.063,0.422c0.03,0.074,0.147,0.105,0.352,0.094c1.346-0.67,2.845-1.471,4.498-2.402
		c1.651-0.934,3.296-1.885,4.933-2.854c1.637-0.969,3.185-1.914,4.644-2.836c1.461-0.92,2.696-1.719,3.709-2.395
		c0.222-0.141,0.453-0.264,0.69-0.369c0.238-0.104,0.459-0.162,0.664-0.174c0.459-0.025,0.852,0.104,1.178,0.393
		c0.325,0.289,0.502,0.689,0.534,1.201c0.035,0.588-0.176,1.275-0.629,2.059c-0.454,0.785-1.246,1.621-2.373,2.508
		c-0.863,0.617-1.83,1.309-2.9,2.078c-1.071,0.771-2.193,1.568-3.362,2.395c-1.171,0.826-2.355,1.633-3.553,2.424
		c-1.199,0.791-2.356,1.5-3.474,2.131c-1.118,0.631-2.172,1.148-3.162,1.555c-0.991,0.404-1.856,0.629-2.598,0.674
		c-1.765,0.104-3.114-0.24-4.046-1.031c-0.933-0.793-1.438-1.854-1.517-3.184c-0.012-0.203-0.008-0.357,0.011-0.463
		c0.112-1.135,0.38-2.242,0.804-3.32c0.424-1.076,0.915-2.107,1.473-3.09c0.558-0.982,1.144-1.924,1.758-2.818
		c0.614-0.896,1.174-1.74,1.68-2.527c0.505-0.785,0.918-1.51,1.238-2.172c0.321-0.66,0.465-1.258,0.433-1.795
		c-0.008-0.129-0.041-0.254-0.1-0.381c-0.059-0.123-0.178-0.182-0.356-0.17c-0.308,0.018-0.806,0.162-1.496,0.434
		c-0.69,0.273-1.419,0.623-2.189,1.055c-0.771,0.43-1.5,0.916-2.186,1.459c-0.687,0.539-1.167,1.1-1.441,1.682
		c-0.367,0.742-0.786,1.678-1.258,2.809c-0.472,1.133-0.96,2.316-1.464,3.553c-0.504,1.236-0.991,2.459-1.458,3.666
		c-0.468,1.209-0.869,2.248-1.202,3.115c-0.263,0.76-0.626,1.449-1.091,2.066c-0.464,0.617-0.978,1.148-1.542,1.592
		c-0.565,0.443-1.146,0.799-1.747,1.066c-0.601,0.268-1.157,0.416-1.668,0.445c-0.589,0.035-1.064-0.09-1.428-0.377
		c-0.364-0.287-0.566-0.775-0.607-1.467c-0.017-0.281,0.007-0.637,0.072-1.063c0.064-0.428,0.222-0.904,0.473-1.434
		c0.41-0.896,0.819-1.871,1.232-2.922c0.413-1.053,0.887-2.254,1.423-3.607c0.536-1.355,1.157-2.904,1.862-4.654
		c0.705-1.748,1.541-3.77,2.51-6.059c-0.377-0.287-0.699-0.646-0.968-1.08c-0.27-0.432-0.425-0.98-0.464-1.647
		c-0.036-0.613,0.06-1.151,0.29-1.616c0.228-0.461,0.552-0.846,0.971-1.153c0.418-0.308,0.911-0.548,1.479-0.724
		c0.567-0.174,1.17-0.28,1.81-0.318c0.665-0.039,1.333-0.021,2.005,0.055c0.672,0.075,1.277,0.213,1.815,0.412
		s0.983,0.456,1.335,0.769c0.352,0.313,0.542,0.687,0.567,1.122c0.004,0.076-0.016,0.18-0.059,0.311
		c-0.044,0.131-0.093,0.276-0.148,0.432c-0.055,0.158-0.104,0.303-0.147,0.434c-0.044,0.131-0.063,0.234-0.059,0.312
		c0.003,0.052,0.017,0.075,0.042,0.074l0.039-0.002L282.899,110.445z"/>
	<path fill="#313133" d="M330.793,110.342c0.914-1.056,1.884-2.108,2.913-3.157c1.029-1.049,2.115-1.998,3.259-2.849
		c1.143-0.852,2.353-1.558,3.628-2.121c1.275-0.563,2.628-0.889,4.063-0.973c0.843-0.05,1.72-0.005,2.625,0.134
		c0.906,0.138,1.738,0.404,2.492,0.795c0.755,0.394,1.384,0.921,1.885,1.583c0.502,0.664,0.781,1.494,0.84,2.492
		c0.098,1.637-0.193,3.143-0.867,4.518c-0.676,1.375-1.585,2.623-2.726,3.742c-1.14,1.119-2.42,2.127-3.844,3.02
		s-2.821,1.662-4.194,2.309c-0.35,0.174-0.67,0.393-0.963,0.654c-0.292,0.262-0.54,0.533-0.741,0.813
		c-0.202,0.281-0.359,0.561-0.47,0.838c-0.113,0.275-0.163,0.504-0.152,0.682c0.018,0.307,0.129,0.564,0.334,0.77
		c0.206,0.207,0.55,0.295,1.036,0.266c0.946-0.055,2.009-0.311,3.189-0.766c1.18-0.453,2.545-1.119,4.098-1.994
		s3.323-1.975,5.312-3.299c1.987-1.322,4.276-2.883,6.865-4.68c0.42-0.281,0.821-0.436,1.205-0.457
		c0.486-0.029,0.881,0.127,1.183,0.469c0.304,0.342,0.472,0.807,0.507,1.395c0.042,0.717-0.173,1.545-0.643,2.482
		c-0.471,0.941-1.296,1.855-2.476,2.746c-1.651,1.152-3.34,2.342-5.063,3.572c-1.725,1.232-3.505,2.371-5.343,3.416
		c-1.838,1.047-3.736,1.93-5.696,2.648s-3.988,1.141-6.085,1.266c-3.633,0.215-5.542-1.25-5.728-4.396
		c-0.099-1.664,0.166-3.148,0.795-4.457c0.627-1.309,1.42-2.465,2.374-3.471c0.954-1.006,1.962-1.881,3.022-2.625
		c1.059-0.742,1.969-1.404,2.731-1.99c0.592-0.395,1.146-0.813,1.658-1.254c0.514-0.439,0.968-0.891,1.364-1.35
		c0.396-0.461,0.703-0.922,0.919-1.384c0.216-0.462,0.311-0.923,0.283-1.383c-0.043-0.742-0.411-1.093-1.101-1.052
		c-2.559,0.151-5.993,2.831-10.306,8.042c-0.983,1.188-1.877,2.34-2.683,3.451c-0.807,1.113-1.558,2.205-2.252,3.271
		c-0.694,1.068-1.357,2.104-1.991,3.102c-0.634,1.002-1.257,1.955-1.872,2.863c-1.861,2.369-3.573,3.602-5.134,3.693
		c-0.742,0.045-1.286-0.059-1.634-0.309c-0.348-0.248-0.545-0.742-0.588-1.486c-0.007-0.102-0.014-0.203-0.02-0.307
		c-0.005-0.102,0.001-0.217,0.019-0.346c0.021-0.516,0.192-1.309,0.514-2.379c0.322-1.072,0.73-2.289,1.228-3.654
		c0.497-1.363,1.052-2.822,1.665-4.373c0.615-1.551,1.225-3.068,1.829-4.557c0.605-1.486,1.177-2.881,1.716-4.181
		c0.54-1.303,0.988-2.389,1.348-3.258L335.78,81.4c0.133-0.341,0.351-0.677,0.652-1.002c0.302-0.326,0.644-0.622,1.026-0.888
		c0.382-0.268,0.792-0.484,1.232-0.651c0.438-0.167,0.889-0.265,1.349-0.29c1.151-0.069,1.963,0.101,2.438,0.508
		c0.473,0.409,0.728,0.921,0.765,1.535c0.033,0.563-0.067,1.157-0.299,1.788c-0.232,0.629-0.512,1.225-0.838,1.782
		c-0.961,1.982-1.908,4.086-2.841,6.31c-0.934,2.225-1.859,4.481-2.776,6.769c-0.917,2.288-1.849,4.544-2.795,6.77
		C332.746,106.253,331.779,108.358,330.793,110.342z"/>
	<path fill="#313133" d="M363.193,104.766c0.445-1.131,1.036-1.986,1.772-2.569c0.735-0.582,1.474-0.896,2.216-0.939
		c0.613-0.037,1.177,0.154,1.689,0.572c0.512,0.42,0.795,1.064,0.846,1.934c0.021,0.333,0.003,0.692-0.051,1.082
		c-0.054,0.388-0.171,0.805-0.35,1.252c0.52-0.749,1.281-1.532,2.286-2.35c1.005-0.816,2.121-1.563,3.353-2.239
		c1.231-0.676,2.506-1.246,3.827-1.709c1.319-0.463,2.58-0.729,3.783-0.802c1.355-0.081,2.506,0.18,3.453,0.778
		c0.946,0.599,1.466,1.679,1.559,3.238c0.055,0.921-0.029,1.888-0.251,2.902c-0.223,1.016-0.528,2.033-0.917,3.058
		s-0.829,2.032-1.322,3.024c-0.494,0.992-0.983,1.924-1.47,2.801c-0.488,0.877-0.936,1.682-1.342,2.41
		c-0.405,0.73-0.722,1.332-0.95,1.809c-0.309,0.43-0.447,0.91-0.415,1.449c0.012,0.205,0.086,0.379,0.224,0.525
		c0.136,0.145,0.346,0.211,0.627,0.193c0.179-0.012,0.384-0.041,0.611-0.094c0.228-0.051,0.5-0.203,0.819-0.453
		c1.352-0.594,2.727-1.316,4.127-2.17c1.398-0.852,2.739-1.746,4.019-2.682c1.278-0.938,2.45-1.865,3.513-2.789
		c1.063-0.922,1.943-1.752,2.645-2.486c0.193-0.191,0.391-0.33,0.591-0.42c0.199-0.089,0.389-0.139,0.568-0.148
		c0.436-0.026,0.783,0.121,1.046,0.438c0.263,0.318,0.41,0.734,0.44,1.244c0.046,0.795-0.15,1.691-0.591,2.693
		c-0.442,1.002-1.176,1.957-2.199,2.865c-1.396,1.135-2.676,2.172-3.839,3.113c-1.164,0.941-2.356,1.828-3.578,2.658
		s-2.536,1.613-3.942,2.35c-1.407,0.738-3.066,1.447-4.977,2.125c-0.653,0.242-1.251,0.432-1.795,0.568
		c-0.545,0.135-1.045,0.215-1.506,0.244c-1.356,0.08-2.369-0.24-3.042-0.957c-0.671-0.717-1.047-1.754-1.128-3.109
		c-0.01-0.18-0.014-0.352-0.01-0.52c0.002-0.168,0.01-0.354,0.024-0.561c0.003-0.795,0.163-1.678,0.479-2.646
		c0.314-0.967,0.705-1.965,1.17-2.996c0.465-1.027,0.963-2.053,1.493-3.072c0.529-1.02,1.019-1.986,1.465-2.898
		c0.447-0.911,0.815-1.721,1.106-2.432c0.292-0.71,0.426-1.283,0.399-1.718c-0.022-0.384-0.151-0.702-0.384-0.959
		c-0.234-0.257-0.567-0.371-1.002-0.345c-1.637,0.097-3.163,0.675-4.576,1.733c-1.413,1.061-2.717,2.337-3.912,3.832
		c-1.195,1.496-2.283,3.068-3.264,4.719c-0.979,1.65-1.843,3.125-2.586,4.428c-0.462,0.875-0.876,1.803-1.24,2.787
		c-0.366,0.984-0.754,1.906-1.165,2.764c-0.411,0.859-0.889,1.582-1.432,2.164c-0.544,0.584-1.25,0.902-2.119,0.955
		c-0.896,0.053-1.616-0.189-2.16-0.721c-0.545-0.531-0.842-1.207-0.891-2.027c-0.025-0.434,0.111-1.148,0.412-2.141
		c0.301-0.994,0.693-2.146,1.182-3.459c0.486-1.313,1.039-2.725,1.654-4.238c0.617-1.51,1.233-3.012,1.853-4.498
		c0.618-1.486,1.208-2.888,1.771-4.206S362.836,105.686,363.193,104.766z"/>
	<path fill="#313133" d="M409.962,97.375c0.971-0.058,2.021,0.011,3.149,0.2s2.183,0.563,3.166,1.122
		c0.982,0.559,1.816,1.324,2.504,2.296c0.687,0.974,1.073,2.203,1.162,3.687c0.045,0.767-0.005,1.649-0.152,2.646
		c-0.146,0.997-0.392,2.044-0.737,3.144c0.272,0.292,0.58,0.491,0.921,0.6c0.34,0.109,0.702,0.15,1.086,0.127
		c0.537-0.031,1.123-0.219,1.757-0.565s1.282-0.781,1.944-1.309s1.319-1.118,1.975-1.772c0.654-0.655,1.27-1.308,1.847-1.958
		c0.578-0.65,1.101-1.265,1.566-1.846c0.466-0.579,0.854-1.069,1.164-1.474c0.167-0.188,0.38-0.292,0.636-0.307
		c0.357-0.021,0.689,0.145,0.993,0.499c0.302,0.355,0.474,0.865,0.514,1.528c0.038,0.666-0.114,1.445-0.459,2.339
		c-0.346,0.894-1.026,1.845-2.045,2.854c-0.573,0.701-1.232,1.511-1.974,2.427c-0.741,0.918-1.538,1.785-2.388,2.605
		s-1.744,1.527-2.685,2.123c-0.94,0.594-1.896,0.922-2.868,0.979c-0.667,0.039-1.318-0.025-1.956-0.193
		c-0.639-0.166-1.292-0.461-1.959-0.885c-0.835,1.488-1.808,2.855-2.914,4.1c-1.107,1.246-2.358,2.336-3.754,3.266
		s-2.917,1.682-4.563,2.252c-1.648,0.572-3.419,0.916-5.312,1.029c-0.716,0.041-1.556-0.051-2.519-0.277
		c-0.964-0.225-1.893-0.639-2.788-1.24s-1.668-1.408-2.318-2.422c-0.65-1.016-1.021-2.275-1.11-3.785
		c-0.061-1.023,0.033-2.26,0.281-3.715c0.247-1.449,0.664-2.957,1.253-4.519c0.587-1.563,1.355-3.122,2.302-4.682
		c0.948-1.557,2.103-2.974,3.465-4.247c1.362-1.274,2.942-2.33,4.741-3.168S407.71,97.509,409.962,97.375z M408.365,104.248
		c-1.202,0.071-2.341,0.44-3.418,1.106c-1.078,0.668-2.016,1.52-2.814,2.555c-0.798,1.035-1.417,2.188-1.854,3.458
		c-0.438,1.271-0.619,2.559-0.542,3.863c0.028,0.488,0.099,1.016,0.21,1.586c0.11,0.572,0.302,1.1,0.575,1.584
		c0.272,0.484,0.649,0.879,1.128,1.184c0.48,0.307,1.104,0.436,1.872,0.391c1.176-0.07,2.303-0.451,3.379-1.145
		c1.075-0.691,2.017-1.568,2.828-2.631c0.81-1.061,1.432-2.246,1.868-3.557c0.437-1.309,0.615-2.617,0.538-3.921
		c-0.031-0.511-0.095-1.04-0.189-1.587c-0.098-0.545-0.281-1.041-0.552-1.488c-0.27-0.444-0.645-0.803-1.122-1.069
		C409.793,104.311,409.158,104.201,408.365,104.248z"/>
	<path fill="#313133" d="M428.152,105.463c0.688-1.813,1.256-3.276,1.704-4.395c0.445-1.118,0.863-1.988,1.251-2.616
		c0.386-0.625,0.782-1.053,1.193-1.283c0.41-0.229,0.935-0.362,1.575-0.4c0.971-0.058,1.827,0.205,2.568,0.79
		c0.74,0.585,1.14,1.364,1.196,2.337c0.015,0.23-0.005,0.462-0.055,0.695c-0.051,0.234-0.12,0.47-0.209,0.706l-5.609,15.81
		c-0.09,0.213-0.146,0.439-0.171,0.686c-0.023,0.244-0.031,0.443-0.022,0.598c0.021,0.332,0.105,0.578,0.255,0.734
		c0.15,0.158,0.303,0.234,0.457,0.225c0.281-0.018,0.565-0.098,0.852-0.244c0.285-0.145,0.619-0.389,0.996-0.73
		c0.378-0.346,0.838-0.809,1.381-1.393s1.211-1.324,2.006-2.217c0.742-0.891,1.502-1.957,2.275-3.197
		c0.772-1.238,1.524-2.541,2.251-3.906c0.729-1.366,1.398-2.739,2.009-4.124c0.612-1.384,1.139-2.665,1.583-3.847
		c0.338-0.79,0.646-1.432,0.925-1.923c0.279-0.491,0.558-0.874,0.838-1.147c0.278-0.272,0.569-0.463,0.87-0.57
		c0.302-0.107,0.657-0.174,1.067-0.198c1.559-0.092,2.381,0.539,2.46,1.895c-0.04,0.209-0.058,0.44-0.055,0.696
		c0.002,0.257-0.051,0.556-0.159,0.896l-4.938,18.043c0.038,0.639,0.377,0.939,1.017,0.902c0.458-0.078,1.05-0.352,1.78-0.818
		c0.729-0.467,1.459-1.049,2.188-1.746c0.729-0.697,1.399-1.494,2.014-2.391c0.615-0.896,1.048-1.814,1.3-2.753
		c0.463-1.723,0.932-3.457,1.406-5.206c0.474-1.746,0.995-3.337,1.566-4.77c0.569-1.434,1.204-2.626,1.905-3.579
		c0.7-0.953,1.51-1.494,2.426-1.626c0.817-0.048,1.506,0.175,2.06,0.668c0.557,0.492,0.859,1.162,0.909,2.007
		c0.059,0.997-0.013,2.079-0.211,3.246c-0.201,1.168-0.485,2.339-0.853,3.517c-0.367,1.176-0.818,2.32-1.355,3.429
		c-0.538,1.11-1.101,2.119-1.688,3.027c0.211,0.525,0.597,0.773,1.161,0.74c0.997-0.059,1.932-0.191,2.806-0.396
		c0.874-0.207,1.716-0.48,2.532-0.825c0.813-0.343,1.623-0.744,2.43-1.203c0.809-0.457,1.644-0.982,2.507-1.573
		c0.392-0.306,0.793-0.47,1.203-0.494c0.512-0.03,0.983,0.134,1.416,0.493c0.431,0.36,0.665,0.848,0.701,1.46
		c0.033,0.563-0.182,1.154-0.646,1.771c-0.464,0.619-1.089,1.232-1.874,1.844c-0.785,0.613-1.681,1.191-2.688,1.738
		c-1.007,0.547-2.031,1.039-3.07,1.473c-1.04,0.434-2.045,0.787-3.018,1.064c-0.972,0.275-1.828,0.434-2.57,0.479
		c-1.432,0.084-2.928-0.236-4.485-0.967c-1.663,2.254-3.428,4.002-5.292,5.242c-1.865,1.24-3.795,1.92-5.79,2.037
		c-1.841,0.109-3.193-0.291-4.056-1.205c-0.863-0.91-1.349-2.287-1.459-4.129c-1.802,2.057-3.515,3.59-5.137,4.598
		s-3.314,1.564-5.08,1.668c-1.126,0.066-2.073-0.012-2.844-0.236c-0.771-0.223-1.401-0.564-1.89-1.023
		c-0.489-0.459-0.85-1.01-1.08-1.648c-0.229-0.643-0.368-1.346-0.413-2.113c-0.074-1.254,0.025-2.588,0.302-4.002
		c0.275-1.416,0.624-2.793,1.046-4.127c0.422-1.333,0.849-2.572,1.281-3.714C427.536,107.097,427.886,106.17,428.152,105.463z"/>
	<path fill="#313133" d="M476.953,110.274c-0.248,0.605-0.481,1.306-0.704,2.101c-0.223,0.797-0.314,1.502-0.279,2.117
		c0.023,0.383,0.118,0.684,0.284,0.906c0.168,0.221,0.469,0.318,0.904,0.293c0.537-0.033,1.199-0.23,1.986-0.6
		c0.786-0.365,1.632-0.84,2.533-1.422c0.903-0.578,1.839-1.236,2.811-1.975c0.969-0.737,1.932-1.501,2.886-2.289
		c0.956-0.788,1.864-1.574,2.73-2.354c0.864-0.784,1.637-1.504,2.316-2.161c0.193-0.191,0.429-0.332,0.706-0.427
		c0.277-0.093,0.518-0.146,0.723-0.158c0.512-0.029,0.943,0.125,1.298,0.462c0.353,0.34,0.548,0.804,0.582,1.392
		c0.032,0.536-0.111,1.147-0.429,1.834c-0.32,0.688-0.908,1.376-1.766,2.07c-1.547,1.604-3.112,3.135-4.694,4.588
		c-1.583,1.455-3.169,2.748-4.757,3.883c-1.589,1.133-3.178,2.055-4.765,2.766c-1.589,0.709-3.149,1.109-4.685,1.201
		c-1.05,0.063-1.934-0.027-2.653-0.268s-1.306-0.59-1.757-1.051c-0.45-0.461-0.785-1.018-1.004-1.672
		c-0.218-0.654-0.35-1.354-0.394-2.096c-0.074-1.252,0.035-2.549,0.328-3.889s0.662-2.574,1.109-3.705
		c0.777-2.049,1.568-4.084,2.372-6.109c0.805-2.023,1.542-3.876,2.212-5.559l10.161-25.438c0.401-1.025,0.979-1.766,1.735-2.222
		c0.756-0.455,1.531-0.706,2.324-0.752c0.793-0.048,1.528,0.127,2.206,0.522c0.678,0.398,1.046,1.082,1.104,2.054
		c0.027,0.46-0.053,0.952-0.24,1.477c-0.188,0.525-0.43,1.091-0.728,1.698c-0.567,1.242-1.241,2.757-2.021,4.549
		c-0.779,1.793-1.614,3.74-2.504,5.847s-1.799,4.298-2.73,6.573c-0.93,2.275-1.839,4.492-2.725,6.649
		c-0.887,2.156-1.715,4.201-2.484,6.134C478.176,107.178,477.51,108.855,476.953,110.274z"/>
	<path fill="#313133" d="M506.997,91.591c2.123-0.126,3.738,0.292,4.848,1.253c1.11,0.962,1.718,2.35,1.826,4.167
		c0.063,1.073-0.151,2.217-0.645,3.427c-0.493,1.209-1.394,2.463-2.703,3.76c-1.31,1.298-3.086,2.646-5.325,4.049
		c-2.24,1.404-5.061,2.849-8.464,4.333c0.172,0.734,0.603,1.293,1.293,1.676c0.689,0.383,1.585,0.541,2.685,0.477
		c1.176-0.07,2.427-0.318,3.749-0.742c1.323-0.424,2.625-0.945,3.913-1.561c1.284-0.615,2.536-1.273,3.752-1.973
		c1.216-0.701,2.313-1.363,3.289-1.987c0.979-0.621,1.793-1.157,2.446-1.606c0.654-0.45,1.093-0.732,1.318-0.849
		c0.22-0.167,0.426-0.269,0.616-0.306c0.189-0.036,0.362-0.061,0.516-0.069c0.307-0.018,0.567,0.038,0.78,0.165
		c0.213,0.13,0.395,0.285,0.548,0.469c0.15,0.185,0.26,0.383,0.323,0.598c0.064,0.214,0.102,0.397,0.11,0.551
		c0.013,0.229,0.005,0.507-0.028,0.829c-0.032,0.323-0.203,0.7-0.51,1.128c-0.121,0.137-0.529,0.508-1.226,1.111
		c-0.695,0.608-1.596,1.329-2.702,2.163c-1.104,0.836-2.394,1.727-3.864,2.674c-1.472,0.947-3.037,1.83-4.696,2.648
		c-1.658,0.816-3.395,1.516-5.208,2.098s-3.616,0.926-5.406,1.033c-1.535,0.09-2.915-0.123-4.139-0.643
		c-1.224-0.518-2.281-1.25-3.172-2.197c-0.891-0.949-1.593-2.063-2.104-3.342c-0.513-1.279-0.81-2.635-0.895-4.067
		c-0.065-1.101,0.08-2.321,0.437-3.664c0.356-1.344,0.905-2.705,1.646-4.083s1.667-2.736,2.781-4.073s2.385-2.534,3.812-3.595
		c1.426-1.06,3.011-1.937,4.754-2.63C503.094,92.118,504.976,91.71,506.997,91.591z M505.929,96.968
		c-0.13-0.018-0.245-0.023-0.347-0.018c-0.104,0.005-0.218,0.013-0.347,0.021c-0.971,0.057-1.868,0.303-2.689,0.736
		c-0.822,0.433-1.566,0.985-2.231,1.653c-0.667,0.667-1.251,1.417-1.755,2.241c-0.503,0.826-0.948,1.641-1.337,2.446
		c-0.389,0.807-0.71,1.577-0.961,2.31c-0.252,0.734-0.439,1.35-0.564,1.844c0.868-0.514,1.765-1.091,2.688-1.738
		c0.925-0.645,1.793-1.262,2.605-1.848c0.812-0.587,1.52-1.116,2.119-1.589c0.601-0.471,1.025-0.793,1.272-0.962
		c1.107-0.784,1.861-1.502,2.26-2.154c0.397-0.653,0.583-1.209,0.556-1.669c-0.022-0.385-0.163-0.685-0.42-0.9
		C506.522,97.126,506.238,97.002,505.929,96.968z"/>
	<path fill="#313133" d="M541.341,109.772c-0.022,0.055-0.031,0.118-0.027,0.195c0.005,0.077-0.004,0.143-0.026,0.194
		c0.026,0.46,0.171,0.932,0.432,1.418c0.258,0.484,0.645,0.713,1.155,0.682c0.206-0.012,0.357-0.047,0.456-0.104
		c1.433-0.521,2.869-1.3,4.31-2.335s2.818-2.154,4.132-3.362c1.315-1.208,2.521-2.435,3.614-3.68
		c1.095-1.245,1.997-2.352,2.71-3.318c0.333-0.456,0.716-0.696,1.152-0.722c0.383-0.022,0.732,0.136,1.048,0.476
		c0.314,0.341,0.492,0.818,0.527,1.432c0.029,0.486-0.071,1.071-0.301,1.751c-0.229,0.682-0.627,1.424-1.196,2.228
		c-1.412,1.752-2.864,3.442-4.358,5.071c-1.495,1.628-3.014,3.085-4.555,4.371c-1.54,1.283-3.09,2.332-4.646,3.143
		s-3.101,1.262-4.637,1.355c-1.867,0.109-3.369-0.336-4.507-1.334c-1.137-0.998-1.769-2.559-1.895-4.682
		c-0.007-0.127-0.015-0.262-0.024-0.402c-0.007-0.141-0.004-0.275,0.016-0.404c-0.525,1.109-1.222,2.133-2.091,3.068
		c-0.868,0.938-1.834,1.752-2.896,2.445c-1.063,0.689-2.174,1.244-3.329,1.658c-1.156,0.416-2.285,0.656-3.385,0.721
		c-0.947,0.057-1.824-0.02-2.631-0.23c-0.809-0.207-1.518-0.576-2.126-1.105c-0.609-0.529-1.1-1.217-1.471-2.068
		c-0.372-0.852-0.593-1.891-0.666-3.119c-0.128-2.148,0.085-4.208,0.636-6.178c0.55-1.97,1.327-3.801,2.331-5.49
		c1.005-1.689,2.177-3.222,3.521-4.599c1.344-1.374,2.75-2.563,4.218-3.561s2.941-1.784,4.423-2.359
		c1.48-0.576,2.848-0.901,4.101-0.977c1.458-0.085,2.726,0.085,3.804,0.508c0.526,0.226,1.021,0.543,1.481,0.952
		c0.088-0.236,0.177-0.46,0.268-0.671c0.22-0.63,0.417-1.173,0.597-1.635c0.178-0.459,0.299-0.793,0.363-1.002
		c0.064-0.235,0.249-0.784,0.558-1.65c0.307-0.865,0.664-1.881,1.071-3.048c0.405-1.165,0.845-2.418,1.317-3.754
		c0.473-1.338,0.905-2.596,1.297-3.775c0.394-1.178,0.73-2.191,1.014-3.041c0.283-0.853,0.457-1.396,0.52-1.63
		c0.142-0.65,0.348-1.285,0.62-1.904c0.271-0.62,0.604-1.165,0.999-1.639c0.396-0.472,0.867-0.859,1.414-1.161
		c0.546-0.303,1.179-0.475,1.895-0.516c0.972-0.059,1.79,0.104,2.455,0.489c0.664,0.384,1.032,1.178,1.104,2.379
		c0.028,0.486-0.006,0.99-0.104,1.508c-0.098,0.52-0.215,1.027-0.353,1.523c-0.137,0.496-0.288,0.985-0.452,1.47
		c-0.163,0.485-0.311,0.937-0.44,1.354c-1.127,2.635-2.306,5.495-3.534,8.585s-2.443,6.195-3.645,9.321
		c-1.201,3.127-2.342,6.171-3.425,9.136C543.095,104.715,542.149,107.389,541.341,109.772z M539.303,94.837
		c-1.533,0.143-3.125,0.571-4.777,1.285c-1.904,0.779-3.623,1.877-5.156,3.289c-1.533,1.413-2.8,3.111-3.8,5.097
		c-0.998,1.983-1.501,4.221-1.507,6.71c0.06,1.023,0.524,1.51,1.395,1.457c1.074-0.063,2.084-0.346,3.03-0.852
		c0.945-0.506,1.838-1.162,2.675-1.969c0.837-0.806,1.611-1.719,2.321-2.736c0.71-1.017,1.359-2.069,1.949-3.156
		c0.591-1.088,1.117-2.165,1.58-3.231c0.462-1.067,0.86-2.061,1.19-2.979c0.111-0.288,0.268-0.695,0.467-1.221
		C538.846,96.034,539.058,95.469,539.303,94.837z"/>
	<path fill="#313133" d="M571.69,87.799c1.126-0.067,2.119,0.016,2.98,0.248c0.86,0.23,1.595,0.495,2.202,0.793
		c0.69,0.37,1.304,0.783,1.846,1.239c0.344-0.253,0.715-0.493,1.111-0.722c0.348-0.199,0.734-0.383,1.161-0.551
		c0.426-0.166,0.857-0.261,1.293-0.288c1.125-0.066,2.008,0.113,2.649,0.536c0.642,0.424,0.98,0.957,1.019,1.596
		c0.02,0.333-0.052,0.672-0.209,1.014l-7.973,17.529l0.69-0.696c2.913-1.942,5.313-3.477,7.198-4.603
		c1.884-1.126,3.386-1.966,4.509-2.52c1.122-0.555,1.931-0.904,2.422-1.049c0.492-0.145,0.802-0.221,0.93-0.229
		c0.588-0.034,1.055,0.163,1.402,0.592c0.346,0.428,0.539,0.976,0.578,1.64c0.044,0.743-0.122,1.509-0.5,2.302
		c-0.376,0.793-0.99,1.381-1.838,1.765c-1.118,0.657-2.423,1.369-3.918,2.138c-1.494,0.769-3.049,1.612-4.662,2.529
		c-1.615,0.918-3.23,1.93-4.846,3.041c-1.615,1.109-3.115,2.322-4.502,3.637l-6.646,13.906c-0.527,1.496-1.014,2.717-1.458,3.668
		c-0.444,0.949-0.895,1.709-1.349,2.273c-0.454,0.568-0.931,0.967-1.431,1.203c-0.498,0.234-1.081,0.371-1.746,0.41
		c-0.997,0.061-1.805-0.24-2.421-0.896c-0.617-0.656-0.953-1.471-1.011-2.441c-0.062-1.023,0.111-2.229,0.518-3.611
		c0.405-1.385,1.003-2.891,1.792-4.516c0.79-1.625,1.76-3.34,2.912-5.141c1.15-1.801,2.44-3.643,3.869-5.523l4.399-6.344
		c-0.92,0.954-1.834,1.778-2.742,2.473c-0.909,0.697-1.787,1.268-2.631,1.715c-0.848,0.449-1.643,0.785-2.387,1.008
		c-0.743,0.225-1.397,0.354-1.96,0.387c-1.023,0.061-1.984-0.121-2.881-0.543c-0.898-0.422-1.685-1.035-2.363-1.844
		c-0.677-0.805-1.228-1.775-1.653-2.904c-0.428-1.131-0.68-2.373-0.76-3.729c-0.166-2.813,0.226-5.391,1.179-7.732
		c0.951-2.34,2.23-4.36,3.838-6.06c1.606-1.699,3.413-3.044,5.421-4.037C567.731,88.47,569.721,87.916,571.69,87.799z
		 M570.632,94.639c-1.202,0.07-2.348,0.44-3.438,1.107c-1.089,0.669-2.04,1.521-2.852,2.557s-1.435,2.209-1.871,3.519
		c-0.435,1.31-0.612,2.642-0.533,3.997c0.024,0.409,0.082,0.85,0.175,1.318c0.092,0.47,0.258,0.902,0.501,1.299
		c0.241,0.397,0.581,0.717,1.02,0.96c0.438,0.244,1.026,0.344,1.77,0.3c0.537-0.032,1.156-0.306,1.856-0.821
		c0.701-0.518,1.42-1.164,2.157-1.938c0.737-0.775,1.45-1.626,2.141-2.553c0.689-0.926,1.309-1.829,1.861-2.708
		c0.551-0.882,0.984-1.67,1.304-2.37c0.317-0.697,0.466-1.215,0.446-1.546c-0.032-0.563-0.216-1.047-0.547-1.45
		c-0.332-0.404-0.731-0.732-1.194-0.989c-0.465-0.254-0.95-0.438-1.459-0.549C571.462,94.662,571.016,94.617,570.632,94.639z"/>
	<path fill="#313133" d="M607.335,85.65c2.123-0.126,3.738,0.292,4.848,1.254c1.11,0.96,1.718,2.349,1.825,4.165
		c0.063,1.074-0.151,2.218-0.645,3.428c-0.492,1.209-1.394,2.463-2.703,3.759c-1.31,1.298-3.084,2.648-5.323,4.05
		c-2.241,1.403-5.063,2.849-8.465,4.334c0.172,0.734,0.603,1.292,1.293,1.675c0.689,0.383,1.584,0.542,2.685,0.477
		c1.176-0.069,2.426-0.317,3.749-0.742c1.322-0.424,2.626-0.943,3.912-1.561c1.285-0.614,2.537-1.271,3.753-1.974
		c1.215-0.701,2.313-1.362,3.289-1.985c0.978-0.621,1.792-1.158,2.446-1.608c0.653-0.449,1.093-0.731,1.317-0.847
		c0.221-0.167,0.426-0.27,0.617-0.307c0.19-0.037,0.361-0.061,0.516-0.069c0.306-0.019,0.566,0.038,0.779,0.165
		c0.213,0.13,0.396,0.284,0.548,0.468c0.151,0.185,0.26,0.384,0.325,0.598c0.063,0.217,0.1,0.398,0.109,0.553
		c0.013,0.229,0.004,0.506-0.028,0.829c-0.032,0.322-0.203,0.699-0.511,1.128c-0.121,0.135-0.528,0.506-1.225,1.111
		c-0.695,0.606-1.596,1.326-2.702,2.162c-1.105,0.836-2.394,1.728-3.865,2.674c-1.471,0.947-3.036,1.83-4.694,2.646
		c-1.659,0.816-3.395,1.518-5.209,2.1s-3.615,0.926-5.406,1.033c-1.534,0.09-2.914-0.125-4.139-0.643
		c-1.225-0.516-2.282-1.25-3.172-2.197c-0.891-0.949-1.592-2.064-2.104-3.342c-0.512-1.279-0.811-2.634-0.896-4.065
		c-0.064-1.101,0.081-2.321,0.438-3.665c0.356-1.345,0.904-2.705,1.645-4.083c0.739-1.379,1.667-2.736,2.781-4.073
		c1.115-1.337,2.386-2.534,3.812-3.595c1.426-1.059,3.01-1.937,4.753-2.63C603.432,86.176,605.313,85.771,607.335,85.65z
		 M606.267,91.027c-0.13-0.018-0.245-0.023-0.347-0.018c-0.104,0.006-0.22,0.013-0.347,0.021c-0.973,0.058-1.868,0.304-2.689,0.736
		c-0.822,0.434-1.565,0.985-2.232,1.653c-0.666,0.668-1.251,1.416-1.754,2.24c-0.503,0.826-0.949,1.643-1.337,2.447
		c-0.389,0.807-0.709,1.576-0.962,2.31c-0.251,0.734-0.438,1.35-0.563,1.844c0.866-0.514,1.763-1.092,2.688-1.738
		c0.925-0.645,1.793-1.262,2.605-1.849c0.812-0.587,1.519-1.115,2.119-1.589c0.602-0.471,1.024-0.791,1.271-0.96
		c1.109-0.784,1.861-1.503,2.261-2.155c0.397-0.652,0.582-1.209,0.555-1.67c-0.023-0.384-0.162-0.683-0.419-0.899
		C606.86,91.185,606.576,91.06,606.267,91.027z"/>
	<path fill="#313133" d="M638.946,106.458c-0.055,0.798-0.253,1.567-0.595,2.307c-0.341,0.739-0.777,1.4-1.309,1.982
		c-0.529,0.584-1.143,1.057-1.839,1.418c-0.699,0.361-1.431,0.564-2.198,0.611c-1.151,0.066-2.095-0.254-2.829-0.967
		c-0.736-0.715-1.136-1.622-1.201-2.722c-0.05-0.844,0.081-1.66,0.394-2.449c0.313-0.787,0.753-1.501,1.317-2.138
		c0.565-0.637,1.222-1.156,1.968-1.561c0.746-0.403,1.528-0.629,2.347-0.678c1.152-0.067,2.081,0.237,2.788,0.912
		c0.708,0.679,1.094,1.566,1.159,2.666c0.006,0.103,0.012,0.198,0.017,0.288C638.971,106.22,638.965,106.329,638.946,106.458z
		 M654.607,64.676c-1.247,2.77-2.384,5.256-3.407,7.461c-1.025,2.202-2.028,4.349-3.008,6.435c-0.981,2.085-1.983,4.231-3.008,6.436
		c-1.024,2.203-2.161,4.689-3.408,7.459c-0.341,0.766-0.856,1.354-1.552,1.768c-0.694,0.413-1.348,0.638-1.962,0.674
		c-0.513,0.031-0.935-0.054-1.267-0.252c-0.333-0.198-0.512-0.527-0.54-0.988c-0.018-0.308,0.028-0.604,0.14-0.895
		c0.662-1.836,1.279-3.534,1.854-5.096c0.575-1.561,1.122-3.063,1.64-4.506c0.518-1.441,1.019-2.845,1.503-4.209
		c0.482-1.363,0.985-2.76,1.504-4.189c0.518-1.431,1.063-2.932,1.639-4.506s1.192-3.278,1.854-5.115
		c0.178-0.474,0.44-0.898,0.791-1.279c0.35-0.38,0.761-0.705,1.232-0.978c0.471-0.271,0.972-0.481,1.502-0.628
		c0.53-0.147,1.064-0.236,1.602-0.27c0.818-0.048,1.524,0.064,2.118,0.338s0.911,0.742,0.95,1.406
		C654.801,64.024,654.742,64.335,654.607,64.676z"/>
</g>
<path fill="#92C364" stroke="#92C364" stroke-width="6" stroke-miterlimit="10" d="M674.153,142.508h-33.177
	c-0.016,0-0.031,0.002-0.047,0.002h-18.5v18.531c0,0.004-0.001,0.01-0.001,0.016v33.178c0,10.201,8.347,18.547,18.548,18.547h33.177
	c10.201,0,18.549-8.346,18.549-18.547v-33.178C692.702,150.855,684.354,142.508,674.153,142.508z"/>
<path fill="#2DBCEB" stroke="#2DBCEB" stroke-width="6" stroke-miterlimit="10" d="M25.651,76.757h32.831
	c0.016,0,0.031-0.001,0.046-0.001h18.307V58.417c0-0.005,0-0.01,0-0.015V25.572c0-10.095-8.259-18.354-18.354-18.354H25.651
	c-10.095,0-18.354,8.259-18.354,18.354v32.831C7.297,68.498,15.557,76.757,25.651,76.757z"/>
<text transform="matrix(1 0 0 1 27.6201 64.0317)" fill="#FFFFFF" font-family="'Pacifico-Regular'" font-size="55.3488">?</text>
<polygon fill="#FFFFFF" points="635.878,176.152 652.519,196.307 678.235,157.275 671.427,155.697 651.762,180.541 641.09,170.102 
	"/>
</svg>
